<svg width="563" height="322" viewBox="0 0 563 322" fill="none" xmlns="http://www.w3.org/2000/svg">
<rect width="563" height="322" rx="25" fill="#101011"/>
<g clip-path="url(#clip0_25043_70766)">
<g clip-path="url(#clip1_25043_70766)">
<g clip-path="url(#clip2_25043_70766)">
<g clip-path="url(#clip3_25043_70766)">
<g clip-path="url(#clip4_25043_70766)">
<g filter="url(#filter0_d_25043_70766)">
<path d="M160.051 93.0586H110.707L93.599 165.71H115.655L96.5681 225.412L172.492 141.816H134.743L160.051 93.0586Z" fill="url(#paint0_linear_25043_70766)"/>
</g>
</g>
</g>
</g>
</g>
<g clip-path="url(#clip5_25043_70766)">
<g opacity="0.536" clip-path="url(#clip6_25043_70766)">
<g clip-path="url(#clip7_25043_70766)">
<g clip-path="url(#clip8_25043_70766)">
<g clip-path="url(#clip9_25043_70766)">
<path d="M229.695 163.525L208.266 184.954C207.596 185.624 206.688 186 205.741 186C204.794 186 203.885 185.624 203.215 184.954C202.546 184.284 202.169 183.376 202.169 182.429C202.169 181.482 202.546 180.573 203.215 179.904L222.119 161L203.215 142.097C202.546 141.427 202.169 140.519 202.169 139.571C202.169 138.624 202.546 137.716 203.215 137.046C203.885 136.376 204.794 136 205.741 136C206.688 136 207.596 136.376 208.266 137.046L229.695 158.474C230.365 159.144 230.741 160.052 230.741 161C230.741 161.947 230.365 162.855 229.695 163.525Z" fill="url(#paint1_linear_25043_70766)"/>
</g>
</g>
</g>
</g>
<g opacity="0.536" clip-path="url(#clip10_25043_70766)">
<g clip-path="url(#clip11_25043_70766)">
<g clip-path="url(#clip12_25043_70766)">
<g clip-path="url(#clip13_25043_70766)">
<path d="M263.334 164.03L237.619 189.745C236.816 190.549 235.726 191.001 234.589 191.001C233.452 191.001 232.362 190.549 231.559 189.745C230.755 188.942 230.303 187.852 230.303 186.715C230.303 185.578 230.755 184.488 231.559 183.685L254.242 161L231.559 138.316C230.755 137.513 230.303 136.423 230.303 135.286C230.303 134.149 230.755 133.059 231.559 132.256C232.362 131.452 233.452 131 234.589 131C235.726 131 236.816 131.452 237.619 132.256L263.334 157.969C264.138 158.773 264.589 159.863 264.589 161C264.589 162.137 264.138 163.226 263.334 164.03Z" fill="url(#paint2_linear_25043_70766)"/>
</g>
</g>
</g>
</g>
<g opacity="0.536" clip-path="url(#clip14_25043_70766)">
<g clip-path="url(#clip15_25043_70766)">
<g clip-path="url(#clip16_25043_70766)">
<g clip-path="url(#clip17_25043_70766)">
<path d="M308.612 165.04L274.326 199.327C273.254 200.399 271.801 201.001 270.285 201.001C268.77 201.001 267.317 200.399 266.245 199.327C265.173 198.256 264.571 196.802 264.571 195.287C264.571 193.771 265.173 192.318 266.245 191.246L296.49 161L266.245 130.755C265.173 129.684 264.571 128.23 264.571 126.715C264.571 125.199 265.173 123.746 266.245 122.674C267.317 121.603 268.77 121 270.285 121C271.801 121 273.254 121.603 274.326 122.674L308.612 156.959C309.684 158.031 310.286 159.484 310.286 161C310.286 162.516 309.684 163.968 308.612 165.04Z" fill="url(#paint3_linear_25043_70766)"/>
</g>
</g>
</g>
</g>
</g>
<g clip-path="url(#clip18_25043_70766)">
<g clip-path="url(#clip19_25043_70766)">
<g clip-path="url(#clip20_25043_70766)">
<g clip-path="url(#clip21_25043_70766)">
<g filter="url(#filter1_d_25043_70766)">
<path d="M404.457 225.412C466.833 206.295 466.423 120.593 466.423 120.593C424.041 121.645 404.456 93.0586 404.456 93.0586C404.456 93.0586 384.874 121.645 342.489 120.593C342.489 120.593 342.08 206.295 404.457 225.412Z" fill="url(#paint4_linear_25043_70766)"/>
</g>
<path d="M416.908 147.952C416.908 140.586 410.537 134.74 403.054 135.616C397.325 136.261 392.648 140.937 392.121 146.725C391.596 151.869 394.227 156.429 398.318 158.767C399.021 159.176 399.371 159.937 399.195 160.696L394.343 180.865C394.051 182.034 394.928 183.145 396.156 183.145H412.992C414.161 183.145 415.039 182.034 414.804 180.865L409.952 160.696C409.776 159.937 410.128 159.176 410.829 158.767C414.395 156.604 416.908 152.571 416.908 147.952Z" fill="#101011"/>
</g>
</g>
</g>
</g>
</g>
<defs>
<filter id="filter0_d_25043_70766" x="84.7755" y="85.9998" width="96.54" height="150" filterUnits="userSpaceOnUse" color-interpolation-filters="sRGB">
<feFlood flood-opacity="0" result="BackgroundImageFix"/>
<feColorMatrix in="SourceAlpha" type="matrix" values="0 0 0 0 0 0 0 0 0 0 0 0 0 0 0 0 0 0 127 0" result="hardAlpha"/>
<feOffset dy="1.76471"/>
<feGaussianBlur stdDeviation="4.41176"/>
<feComposite in2="hardAlpha" operator="out"/>
<feColorMatrix type="matrix" values="0 0 0 0 0 0 0 0 0 0 0 0 0 0 0 0 0 0 1 0"/>
<feBlend mode="normal" in2="BackgroundImageFix" result="effect1_dropShadow_25043_70766"/>
<feBlend mode="normal" in="SourceGraphic" in2="effect1_dropShadow_25043_70766" result="shape"/>
</filter>
<filter id="filter1_d_25043_70766" x="333.665" y="85.9998" width="141.582" height="150" filterUnits="userSpaceOnUse" color-interpolation-filters="sRGB">
<feFlood flood-opacity="0" result="BackgroundImageFix"/>
<feColorMatrix in="SourceAlpha" type="matrix" values="0 0 0 0 0 0 0 0 0 0 0 0 0 0 0 0 0 0 127 0" result="hardAlpha"/>
<feOffset dy="1.76471"/>
<feGaussianBlur stdDeviation="4.41176"/>
<feComposite in2="hardAlpha" operator="out"/>
<feColorMatrix type="matrix" values="0 0 0 0 0 0 0 0 0 0 0 0 0 0 0 0 0 0 1 0"/>
<feBlend mode="normal" in2="BackgroundImageFix" result="effect1_dropShadow_25043_70766"/>
<feBlend mode="normal" in="SourceGraphic" in2="effect1_dropShadow_25043_70766" result="shape"/>
</filter>
<linearGradient id="paint0_linear_25043_70766" x1="139.04" y1="93.0586" x2="98.452" y2="225.412" gradientUnits="userSpaceOnUse">
<stop stop-color="#ECB71D"/>
<stop offset="1" stop-color="#FFE188"/>
</linearGradient>
<linearGradient id="paint1_linear_25043_70766" x1="230.562" y1="161" x2="168.687" y2="161" gradientUnits="userSpaceOnUse">
<stop stop-color="#252525"/>
<stop offset="1" stop-color="#1A1A1A"/>
</linearGradient>
<linearGradient id="paint2_linear_25043_70766" x1="264.375" y1="161" x2="190.125" y2="161" gradientUnits="userSpaceOnUse">
<stop stop-color="#252525"/>
<stop offset="1" stop-color="#1A1A1A"/>
</linearGradient>
<linearGradient id="paint3_linear_25043_70766" x1="310" y1="161" x2="211" y2="161" gradientUnits="userSpaceOnUse">
<stop stop-color="#252525"/>
<stop offset="1" stop-color="#1A1A1A"/>
</linearGradient>
<linearGradient id="paint4_linear_25043_70766" x1="413.077" y1="96.1468" x2="401.166" y2="225.412" gradientUnits="userSpaceOnUse">
<stop stop-color="#0E863C"/>
<stop offset="1" stop-color="#0AD785"/>
</linearGradient>
<clipPath id="clip0_25043_70766">
<rect width="386.39" height="150" fill="white" transform="translate(88.3049 86)"/>
</clipPath>
<clipPath id="clip1_25043_70766">
<rect width="90" height="150" fill="white" transform="translate(88.3049 86)"/>
</clipPath>
<clipPath id="clip2_25043_70766">
<rect width="90" height="150" fill="white" transform="translate(88.3049 86)"/>
</clipPath>
<clipPath id="clip3_25043_70766">
<rect width="90" height="150" fill="white" transform="translate(88.3049 86)"/>
</clipPath>
<clipPath id="clip4_25043_70766">
<rect width="97.0588" height="150" fill="white" transform="translate(84.7755 86)"/>
</clipPath>
<clipPath id="clip5_25043_70766">
<rect width="156.39" height="80" fill="white" transform="translate(178.305 121)"/>
</clipPath>
<clipPath id="clip6_25043_70766">
<rect width="28" height="50" fill="white" transform="translate(202.5 136)"/>
</clipPath>
<clipPath id="clip7_25043_70766">
<rect width="28" height="50" fill="white" transform="translate(202.5 136)"/>
</clipPath>
<clipPath id="clip8_25043_70766">
<rect width="28" height="50" fill="white" transform="translate(202.5 136)"/>
</clipPath>
<clipPath id="clip9_25043_70766">
<rect width="29.375" height="50" fill="white" transform="translate(201.812 136)"/>
</clipPath>
<clipPath id="clip10_25043_70766">
<rect width="34" height="60" fill="white" transform="translate(230.5 131)"/>
</clipPath>
<clipPath id="clip11_25043_70766">
<rect width="34" height="60" fill="white" transform="translate(230.5 131)"/>
</clipPath>
<clipPath id="clip12_25043_70766">
<rect width="34" height="60" fill="white" transform="translate(230.5 131)"/>
</clipPath>
<clipPath id="clip13_25043_70766">
<rect width="35.25" height="60" fill="white" transform="translate(229.875 131)"/>
</clipPath>
<clipPath id="clip14_25043_70766">
<rect width="46" height="80" fill="white" transform="translate(264.5 121)"/>
</clipPath>
<clipPath id="clip15_25043_70766">
<rect width="46" height="80" fill="white" transform="translate(264.5 121)"/>
</clipPath>
<clipPath id="clip16_25043_70766">
<rect width="46" height="80" fill="white" transform="translate(264.5 121)"/>
</clipPath>
<clipPath id="clip17_25043_70766">
<rect width="47" height="80" fill="white" transform="translate(264 121)"/>
</clipPath>
<clipPath id="clip18_25043_70766">
<rect width="140" height="150" fill="white" transform="translate(334.695 86)"/>
</clipPath>
<clipPath id="clip19_25043_70766">
<rect width="140" height="150" fill="white" transform="translate(334.695 86)"/>
</clipPath>
<clipPath id="clip20_25043_70766">
<rect width="140" height="150" fill="white" transform="translate(334.695 86)"/>
</clipPath>
<clipPath id="clip21_25043_70766">
<rect width="142.059" height="150" fill="white" transform="translate(333.666 86)"/>
</clipPath>
</defs>
</svg>
